<?xml version="1.0" encoding="UTF-8" standalone="no"?>
<!-- Created with Inkscape (http://www.inkscape.org/) -->

<svg
   xmlns:dc="http://purl.org/dc/elements/1.1/"
   xmlns:cc="http://creativecommons.org/ns#"
   xmlns:rdf="http://www.w3.org/1999/02/22-rdf-syntax-ns#"
   xmlns:svg="http://www.w3.org/2000/svg"
   xmlns="http://www.w3.org/2000/svg"
   xmlns:sodipodi="http://sodipodi.sourceforge.net/DTD/sodipodi-0.dtd"
   xmlns:inkscape="http://www.inkscape.org/namespaces/inkscape"
   version="1.1"
   id="svg5164"
   width="64"
   height="64"
   viewBox="0 0 64 64"
   sodipodi:docname="wy-logo.svg"
   inkscape:version="0.92.2 5c3e80d, 2017-08-06">
  <metadata
     id="metadata5170">
    <rdf:RDF>
      <cc:Work
         rdf:about="">
        <dc:format>image/svg+xml</dc:format>
        <dc:type
           rdf:resource="http://purl.org/dc/dcmitype/StillImage" />
        <dc:title></dc:title>
      </cc:Work>
    </rdf:RDF>
  </metadata>
  <defs
     id="defs5168" />
  <sodipodi:namedview
     pagecolor="#ffffff"
     bordercolor="#666666"
     borderopacity="1"
     objecttolerance="10"
     gridtolerance="10"
     guidetolerance="10"
     inkscape:pageopacity="0"
     inkscape:pageshadow="2"
     inkscape:window-width="2123"
     inkscape:window-height="1299"
     id="namedview5166"
     showgrid="false"
     inkscape:zoom="1.4142136"
     inkscape:cx="208.94612"
     inkscape:cy="193.75882"
     inkscape:window-x="1338"
     inkscape:window-y="109"
     inkscape:window-maximized="0"
     inkscape:current-layer="g5182"
     showguides="true"
     inkscape:guide-bbox="true">
    <sodipodi:guide
       position="76.5,321.375"
       orientation="0,1"
       id="guide5235"
       inkscape:locked="false" />
    <sodipodi:guide
       position="170.5,321.375"
       orientation="0,1"
       id="guide5237"
       inkscape:locked="false" />
  </sodipodi:namedview>
  <g
     inkscape:label="trace abstract"
     id="g5182"
     inkscape:groupmode="layer"
     style="display:inline"
     transform="translate(0,-306.66666)">
    <path
       style="fill:#46c451;fill-opacity:1;stroke-width:0.11081495"
       d="m 52.53074,308.66679 c -0.818887,-0.002 -1.643764,0.14728 -2.422238,0.4675 -2.098452,0.86318 -3.897048,3.60029 -2.757929,6.42586 0.97338,2.35504 3.0968,3.47805 5.653186,2.38653 1.003175,-0.47845 2.302403,-1.50109 3.020248,-0.93111 0.996844,0.7111 0.05955,5.10449 -0.912925,7.31736 -1.021281,2.32392 -2.306107,4.28791 -4.742208,7.2495 -1.727026,2.09957 -6.578523,7.21306 -6.848234,7.21802 -4.927068,-26.35737 -0.188516,-1.12289 -4.927261,-26.47936 h 4.423074 c 0.112881,-0.5575 0.201257,-0.96419 0.288943,-1.49958 -14.321627,-0.0334 0.282649,-6e-5 -17.072537,-0.0958 l -0.386662,1.59535 2.108623,-0.002 c 0.648005,3.07444 1.304339,6.04263 1.872275,8.71726 -2.932589,5.5533 -4.965287,9.62464 -8.601686,16.29954 -1.956543,-25.85739 0.152647,1.72376 -1.934284,-25.0207 l 3.476711,-0.014 c 0.03406,-0.11793 0.137661,-0.4667 0.427244,-1.42782 l -18.2445326,0.0565 -0.08766,0.44347 c -0.04817,0.2438 -0.113871,0.55536 -0.145769,0.69249 l -0.05779,0.24933 h 4.274059 c 0.988272,9.80005 2.1985306,22.02701 3.2663346,32.77504 7.913709,0.0215 -0.420633,-0.033 7.102761,0 3.053695,-5.9699 -0.322327,0.53613 11.113852,-21.13298 1.38923,6.26561 2.729025,12.68659 3.867917,18.01631 0.575956,2.69206 1.047331,4.98105 1.047331,5.08699 0,0.10593 -0.442088,0.83216 -0.982399,1.61385 -2.941015,4.25487 -4.390577,7.17739 -5.023034,10.12788 -0.346043,1.61436 -0.350791,4.0856 -0.01039,5.33145 0.24698,0.90393 0.851362,2.18633 1.277509,2.71118 0.436841,0.53802 1.417643,1.22704 2.164138,1.52003 0.897001,0.35205 2.606103,0.40531 3.566315,0.11103 3.11582,-0.95493 4.98714,-4.44948 4.266916,-7.96829 -0.331005,-1.61719 -1.215257,-2.89295 -2.464441,-3.55528 -0.898675,-0.47648 -2.295013,-0.5434 -3.573457,-0.17109 -1.174489,0.34204 -1.615081,0.34772 -1.766113,0.0227 -0.183622,-0.39513 -0.132843,-1.56655 0.101941,-2.35244 0.888065,-2.9726 3.097769,-5.76668 10.255468,-12.96827 4.895027,-4.92505 7.624735,-7.90368 9.623369,-10.50058 4.675555,-6.07513 6.579055,-8.69341 6.573253,-13.71335 -0.0019,-1.64633 -0.544498,-3.94692 -1.037267,-5.09965 -0.915336,-2.14124 -3.316,-3.49849 -5.772657,-3.50301 z m -29.762904,3.63449 c -0.03471,0.1202 0.0029,0 0.0029,0 z"
       id="path5180"
       inkscape:connector-curvature="0"
       sodipodi:nodetypes="sscccsscccccccccccccccccccccsccscccscccssscssccc" />
  </g>
</svg>
