<?xml version="1.0" encoding="UTF-8" standalone="no"?>
<!-- Created with Inkscape (http://www.inkscape.org/) -->

<svg
   xmlns:dc="http://purl.org/dc/elements/1.1/"
   xmlns:cc="http://creativecommons.org/ns#"
   xmlns:rdf="http://www.w3.org/1999/02/22-rdf-syntax-ns#"
   xmlns:svg="http://www.w3.org/2000/svg"
   xmlns="http://www.w3.org/2000/svg"
   xmlns:sodipodi="http://sodipodi.sourceforge.net/DTD/sodipodi-0.dtd"
   xmlns:inkscape="http://www.inkscape.org/namespaces/inkscape"
   version="1.1"
   id="svg5164"
   width="64"
   height="64"
   viewBox="0 0 64 64"
   sodipodi:docname="wy-twitter-profile.svg"
   inkscape:version="0.92.2 5c3e80d, 2017-08-06"
   inkscape:export-filename="/Volumes/SMT5/Documents/Clients/Current/Welledy/Brand/Wordmark/wy-twitter-profile-400x400.png"
   inkscape:export-xdpi="600"
   inkscape:export-ydpi="600">
  <metadata
     id="metadata5170">
    <rdf:RDF>
      <cc:Work
         rdf:about="">
        <dc:format>image/svg+xml</dc:format>
        <dc:type
           rdf:resource="http://purl.org/dc/dcmitype/StillImage" />
        <dc:title></dc:title>
      </cc:Work>
    </rdf:RDF>
  </metadata>
  <defs
     id="defs5168" />
  <sodipodi:namedview
     pagecolor="#ffffff"
     bordercolor="#666666"
     borderopacity="1"
     objecttolerance="10"
     gridtolerance="10"
     guidetolerance="10"
     inkscape:pageopacity="0"
     inkscape:pageshadow="2"
     inkscape:window-width="2123"
     inkscape:window-height="1299"
     id="namedview5166"
     showgrid="false"
     inkscape:zoom="12.385775"
     inkscape:cx="31.677049"
     inkscape:cy="31.000013"
     inkscape:window-x="1338"
     inkscape:window-y="109"
     inkscape:window-maximized="0"
     inkscape:current-layer="g5182"
     showguides="true"
     inkscape:guide-bbox="true">
    <sodipodi:guide
       position="76.5,321.375"
       orientation="0,1"
       id="guide5235"
       inkscape:locked="false" />
    <sodipodi:guide
       position="170.5,321.375"
       orientation="0,1"
       id="guide5237"
       inkscape:locked="false" />
  </sodipodi:namedview>
  <g
     inkscape:label="trace abstract"
     id="g5182"
     inkscape:groupmode="layer"
     style="display:inline"
     transform="translate(0,-306.66666)">
    <ellipse
       style="fill:#46c451;fill-opacity:1;stroke:#ffffff;stroke-width:0.59338583;stroke-miterlimit:4;stroke-dasharray:none;stroke-dashoffset:0;stroke-opacity:1"
       id="path5495"
       cx="31.999998"
       cy="338.66666"
       rx="31.3258"
       ry="31.325802" />
    <path
       style="fill:none;fill-opacity:1;stroke:#ffffff;stroke-width:0.22677165;stroke-miterlimit:4;stroke-dasharray:none;stroke-opacity:1"
       d="m 51.064177,312.68401 c -0.776982,-0.002 -1.559642,0.13974 -2.298278,0.44358 -1.991058,0.81899 -3.697609,3.41604 -2.616787,6.09699 0.923567,2.23452 2.938317,3.30006 5.363875,2.26441 0.951836,-0.45398 2.184574,-1.42427 2.865682,-0.88346 0.945828,0.6747 0.0565,4.84324 -0.866207,6.94287 -0.969014,2.20499 -2.188086,4.06848 -4.499515,6.87849 -1.638642,1.99213 -6.241854,6.84393 -6.497761,6.84863 -4.674918,-25.00848 -0.17887,-1.06543 -4.675102,-25.12422 H 42.0368 c 0.107101,-0.52898 0.190957,-0.91486 0.274156,-1.42284 -13.588691,-0.0316 0.268183,-5e-5 -16.198819,-0.0909 l -0.366872,1.5137 2.00071,-0.002 c 0.614841,2.9171 1.237585,5.73338 1.776457,8.27113 -2.782509,5.2691 -4.711179,9.13208 -8.161479,15.46538 -1.856413,-24.53408 0.144835,1.63554 -1.835294,-23.74021 l 3.298786,-0.0133 c 0.03231,-0.11186 0.130614,-0.44282 0.405379,-1.35475 l -17.310836,0.0535 -0.08318,0.42077 c -0.0457,0.23132 -0.108038,0.52694 -0.138309,0.65705 l -0.05483,0.23656 h 4.055326 c 0.937695,9.29852 2.086016,20.89974 3.099175,31.09773 7.508709,0.0204 -0.399108,-0.0314 6.739264,0 2.897415,-5.6644 -0.305833,0.50869 10.545079,-20.05146 1.318133,5.94494 2.589362,12.03732 3.669968,17.09429 0.546481,2.55429 0.993732,4.72612 0.993732,4.82665 0,0.10053 -0.419463,0.78957 -0.932123,1.53126 -2.790503,4.03712 -4.165881,6.81006 -4.76597,9.60955 -0.328335,1.53176 -0.332839,3.87652 -0.0098,5.05861 0.23434,0.85768 0.807792,2.07445 1.21213,2.57244 0.414485,0.51048 1.345093,1.16422 2.053384,1.44224 0.851097,0.33402 2.472731,0.38456 3.383803,0.10534 2.956362,-0.90606 4.731914,-4.22177 4.048547,-7.5605 -0.314064,-1.53443 -1.153063,-2.74489 -2.338318,-3.37332 -0.852684,-0.4521 -2.177561,-0.51559 -3.390577,-0.16235 -1.114384,0.32453 -1.532427,0.32993 -1.67573,0.0216 -0.174224,-0.37491 -0.126044,-1.48638 0.09672,-2.23205 0.842618,-2.82047 2.939234,-5.47156 9.730626,-12.30459 4.644515,-4.673 7.234524,-7.4992 9.130875,-9.96318 4.436273,-5.76424 6.242359,-8.24852 6.236854,-13.01155 -0.0018,-1.56208 -0.516632,-3.74494 -0.984182,-4.83867 -0.868493,-2.03166 -3.146299,-3.31945 -5.477231,-3.32374 z m -28.239732,3.44848 c -0.03293,0.11403 0.0028,0 0.0028,0 z"
       id="path5180"
       inkscape:connector-curvature="0"
       sodipodi:nodetypes="sscccsscccccccccccccccccccccsccscccscccssscssccc" />
    <text
       xml:space="preserve"
       style="font-style:normal;font-variant:normal;font-weight:normal;font-stretch:normal;font-size:18.66666603px;line-height:1.25;font-family:'Helvetica Neue';-inkscape-font-specification:'Helvetica Neue';letter-spacing:0px;word-spacing:0px;fill:#ffffff;fill-opacity:1;stroke:none;"
       x="3.0992482"
       y="340.95758"
       id="text5499"><tspan
         sodipodi:role="line"
         id="tspan5497"
         x="3.0992482"
         y="340.95758"
         style="font-style:normal;font-variant:normal;font-weight:normal;font-stretch:normal;font-size:16px;font-family:NarzissTextExtraBold;-inkscape-font-specification:'NarzissTextExtraBold, Normal';font-variant-ligatures:normal;font-variant-caps:normal;font-variant-numeric:normal;font-feature-settings:normal;text-align:start;writing-mode:lr-tb;text-anchor:start;fill:#ffffff;fill-opacity:1;">welledy</tspan></text>
  </g>
</svg>
